<mxfile host="app.diagrams.net" modified="2023-08-26T00:55:55.056Z" agent="Mozilla/5.0 (X11; Ubuntu; Linux x86_64; rv:109.0) Gecko/20100101 Firefox/114.0" etag="z49KMVWSoscT9iNzVyy5" version="21.1.7" type="device">
  <diagram name="Page-1" id="e7e014a7-5840-1c2e-5031-d8a46d1fe8dd">
    <mxGraphModel dx="1434" dy="822" grid="1" gridSize="10" guides="1" tooltips="1" connect="1" arrows="1" fold="1" page="1" pageScale="1" pageWidth="1169" pageHeight="826" background="none" math="0" shadow="0">
      <root>
        <mxCell id="0" />
        <mxCell id="1" parent="0" />
        <mxCell id="qVGmkvwKiCx2P1rIay52-44" value="" style="edgeStyle=orthogonalEdgeStyle;rounded=0;orthogonalLoop=1;jettySize=auto;html=1;" edge="1" parent="1" source="qVGmkvwKiCx2P1rIay52-41" target="qVGmkvwKiCx2P1rIay52-43">
          <mxGeometry relative="1" as="geometry" />
        </mxCell>
        <mxCell id="qVGmkvwKiCx2P1rIay52-41" value="" style="ellipse;html=1;shape=startState;fillColor=#000000;strokeColor=#ff0000;" vertex="1" parent="1">
          <mxGeometry x="570" y="40" width="30" height="30" as="geometry" />
        </mxCell>
        <mxCell id="qVGmkvwKiCx2P1rIay52-46" value="" style="edgeStyle=orthogonalEdgeStyle;rounded=0;orthogonalLoop=1;jettySize=auto;html=1;" edge="1" parent="1" source="qVGmkvwKiCx2P1rIay52-43" target="qVGmkvwKiCx2P1rIay52-45">
          <mxGeometry relative="1" as="geometry" />
        </mxCell>
        <mxCell id="qVGmkvwKiCx2P1rIay52-43" value="Initialize Simulation" style="rounded=1;whiteSpace=wrap;html=1;" vertex="1" parent="1">
          <mxGeometry x="525" y="120" width="120" height="60" as="geometry" />
        </mxCell>
        <mxCell id="qVGmkvwKiCx2P1rIay52-48" value="" style="edgeStyle=orthogonalEdgeStyle;rounded=0;orthogonalLoop=1;jettySize=auto;html=1;" edge="1" parent="1" source="qVGmkvwKiCx2P1rIay52-45" target="qVGmkvwKiCx2P1rIay52-47">
          <mxGeometry relative="1" as="geometry" />
        </mxCell>
        <mxCell id="qVGmkvwKiCx2P1rIay52-45" value="Update Simulation" style="rounded=1;whiteSpace=wrap;html=1;" vertex="1" parent="1">
          <mxGeometry x="525" y="240" width="120" height="60" as="geometry" />
        </mxCell>
        <mxCell id="qVGmkvwKiCx2P1rIay52-47" value="" style="ellipse;html=1;shape=endState;fillColor=#000000;strokeColor=#ff0000;" vertex="1" parent="1">
          <mxGeometry x="570" y="360" width="30" height="30" as="geometry" />
        </mxCell>
      </root>
    </mxGraphModel>
  </diagram>
</mxfile>
